<?xml version="1.0" encoding="iso-8859-1"?>
<!-- Generator: Adobe Illustrator 19.0.0, SVG Export Plug-In . SVG Version: 6.00 Build 0)  -->
<svg version="1.1" id="Capa_1" xmlns="http://www.w3.org/2000/svg" xmlns:xlink="http://www.w3.org/1999/xlink" x="0px" y="0px"
	 viewBox="0 0 511.998 511.998" style="enable-background:new 0 0 511.998 511.998;" xml:space="preserve">
<linearGradient id="SVGID_1_" gradientUnits="userSpaceOnUse" x1="0.0012" y1="257.9918" x2="512.012" y2="257.9918" gradientTransform="matrix(1 0 0 -1 -0.0012 513.9841)">
	<stop  offset="0" style="stop-color:#00F2FE"/>
	<stop  offset="0.021" style="stop-color:#03EFFE"/>
	<stop  offset="0.293" style="stop-color:#24D2FE"/>
	<stop  offset="0.554" style="stop-color:#3CBDFE"/>
	<stop  offset="0.796" style="stop-color:#4AB0FE"/>
	<stop  offset="1" style="stop-color:#4FACFE"/>
</linearGradient>
<path style="fill:url(#SVGID_1_);" d="M218.01,256c0-21.538,17.461-38.999,38.999-38.999s38.999,17.461,38.999,38.999
	s-17.461,38.999-38.999,38.999S218.01,277.538,218.01,256z M371.006,256c0-62.858-51.139-113.997-113.997-113.997
	S143.012,193.141,143.012,256s51.139,113.997,113.997,113.997S371.006,318.858,371.006,256z M331.007,256
	c0,40.803-33.195,73.998-73.998,73.998S183.011,296.803,183.011,256s33.195-73.998,73.998-73.998S331.007,215.198,331.007,256z
	 M441.405,367.635c8.055-7.558,8.458-20.214,0.9-28.269c-7.559-8.056-20.215-8.458-28.269-0.9
	c-34.777,32.632-90.348,71.53-157.59,71.53c-97.104,0-177.605-83-209.865-132.045c-8.771-13.335-8.771-30.568,0-43.904
	c32.258-49.044,112.761-132.044,209.865-132.044c97.101,0,177.112,83.08,209.081,132.17c8.635,13.259,8.635,30.393,0,43.652
	c-6.027,9.256-3.41,21.645,5.846,27.673c9.254,6.027,21.645,3.411,27.673-5.846c17.27-26.518,17.27-60.789,0-87.308
	c-10.619-16.306-40.582-58.167-89.352-94.633c-49.439-36.965-100.998-55.709-153.246-55.709
	c-52.176,0-103.779,18.693-153.379,55.558c-48.988,36.41-79.191,78.219-89.903,94.504c-17.555,26.688-17.555,61.178,0,87.867
	c10.712,16.286,40.915,58.095,89.903,94.505c49.6,36.865,101.204,55.558,153.379,55.558
	C336.771,449.995,401.363,405.207,441.405,367.635z"/>
<g>
</g>
<g>
</g>
<g>
</g>
<g>
</g>
<g>
</g>
<g>
</g>
<g>
</g>
<g>
</g>
<g>
</g>
<g>
</g>
<g>
</g>
<g>
</g>
<g>
</g>
<g>
</g>
<g>
</g>
</svg>
