<svg id="Capa_1" enable-background="new 0 0 512 512" height="512" viewBox="0 0 512 512" width="512" xmlns="http://www.w3.org/2000/svg"><g><g><path d="m223.675 38.386h-96.976c-4.143 0-7.5 3.357-7.5 7.5v139.403c0 4.143 3.357 7.5 7.5 7.5h96.976c4.143 0 7.5-3.357 7.5-7.5v-139.403c0-4.143-3.358-7.5-7.5-7.5zm-7.5 139.403h-81.976v-124.403h81.976z"/><path d="m260.041 87.731h125.26c4.143 0 7.5-3.357 7.5-7.5v-34.345c0-4.143-3.357-7.5-7.5-7.5h-125.26c-4.143 0-7.5 3.357-7.5 7.5v34.346c0 4.142 3.357 7.499 7.5 7.499zm7.5-34.345h110.26v19.346h-110.26z"/><path d="m260.041 124.098h125.26c4.143 0 7.5-3.357 7.5-7.5s-3.357-7.5-7.5-7.5h-125.26c-4.143 0-7.5 3.357-7.5 7.5s3.357 7.5 7.5 7.5z"/><path d="m260.041 156.423h125.26c4.143 0 7.5-3.357 7.5-7.5s-3.357-7.5-7.5-7.5h-125.26c-4.143 0-7.5 3.357-7.5 7.5s3.357 7.5 7.5 7.5z"/><path d="m260.041 192.789h125.26c4.143 0 7.5-3.357 7.5-7.5s-3.357-7.5-7.5-7.5h-125.26c-4.143 0-7.5 3.357-7.5 7.5s3.357 7.5 7.5 7.5z"/><path d="m191.931 221.654c0 4.143 3.357 7.5 7.5 7.5h185.87c4.143 0 7.5-3.357 7.5-7.5s-3.357-7.5-7.5-7.5h-185.87c-4.143 0-7.5 3.358-7.5 7.5z"/><path d="m126.699 229.154h36.366c4.143 0 7.5-3.357 7.5-7.5s-3.357-7.5-7.5-7.5h-36.366c-4.143 0-7.5 3.357-7.5 7.5s3.358 7.5 7.5 7.5z"/><path d="m228.262 301.981h-20.244c-4.143 0-7.5 3.357-7.5 7.5v69.694c0 1.995.795 3.907 2.209 5.315 1.405 1.399 3.308 2.185 5.291 2.185h.033c.002 0 18.616-.083 23.746-.083 14.479 0 26.26-11.779 26.26-26.259 0-8.648-4.204-16.33-10.673-21.118 2.775-3.862 4.415-8.591 4.415-13.698 0-12.977-10.559-23.536-23.537-23.536zm0 15c4.707 0 8.537 3.83 8.537 8.537s-3.83 8.536-8.537 8.536c-1.517 0-4.401.009-7.526.02h-5.218v-17.093zm3.535 54.612c-2.978 0-10.483.027-16.279.051v-22.549c1.699-.007 3.515-.014 5.257-.02h11.022c6.209 0 11.26 5.051 11.26 11.26 0 6.207-5.051 11.258-11.26 11.258z"/><path d="m85.387 337.842c-8.755-3.229-16.891-6.751-19.18-7.755-1.763-1.352-2.611-3.469-2.283-5.757.21-1.46 1.252-5.023 6.394-6.572 10.466-3.152 20.042 4.452 20.296 4.656 3.172 2.636 7.878 2.219 10.535-.941 2.665-3.171 2.256-7.902-.915-10.567-.638-.535-15.823-13.058-34.242-7.511-9.165 2.762-15.646 9.967-16.915 18.804-1.187 8.263 2.395 16.21 9.344 20.741.331.216.679.405 1.04.566.401.179 9.964 4.436 20.735 8.408 3.342 1.233 10.997 4.757 9.911 10.839-.783 4.386-5.997 8.923-13.367 8.923-7.264 0-14.266-2.941-18.729-7.867-2.783-3.071-7.525-3.301-10.594-.521-3.069 2.781-3.303 7.524-.521 10.594 7.261 8.012 18.417 12.795 29.845 12.795 14.1 0 25.932-8.952 28.134-21.286 1.647-9.236-2.606-21.322-19.488-27.549z"/><path d="m127.7 301.981c-4.143 0-7.5 3.357-7.5 7.5v47.957c0 10.218 4.709 18.193 14.396 24.384 5.027 3.213 10.705 4.846 16.875 4.854h.048c5.325 0 10.321-1.156 14.848-3.437 14.267-7.185 17.262-18.023 17.262-25.851v-47.907c0-4.143-3.357-7.5-7.5-7.5s-7.5 3.357-7.5 7.5v47.907c0 3.687-1.023 8.433-9.009 12.454-2.415 1.217-5.141 1.833-8.102 1.833-.009 0-.019 0-.027 0-3.314-.004-6.198-.82-8.818-2.494-5.307-3.391-7.472-6.793-7.472-11.743v-47.957c-.001-4.142-3.358-7.5-7.501-7.5z"/><path d="m512 276.65c0-15.279-12.426-27.71-27.7-27.71h-53.113v-241.44c0-4.143-3.357-7.5-7.5-7.5h-335.374c-4.143 0-7.5 3.357-7.5 7.5v73.393c0 4.143 3.357 7.5 7.5 7.5s7.5-3.357 7.5-7.5v-65.893h320.373v233.94h-8.832c-4.143 0-7.5 3.357-7.5 7.5s3.357 7.5 7.5 7.5h76.946c7.003 0 12.7 5.702 12.7 12.71v124.692l-50.68-17.806c.881-1.229 1.406-2.732 1.406-4.361v-62.194h11.822c4.143 0 7.5-3.357 7.5-7.5s-3.357-7.5-7.5-7.5h-38.489c-4.143 0-7.5 3.357-7.5 7.5s3.357 7.5 7.5 7.5h11.667v61.778l-36.39-12.786v-56.493c0-4.143-3.357-7.5-7.5-7.5s-7.5 3.357-7.5 7.5v51.223l-17.065-5.996c-1.533-.539-3.159-.538-4.656-.085l-8.673-45.379c-.822-4.036-4.269-7.017-8.382-7.248-4.112-.229-7.87 2.344-9.142 6.261-.027.086-.054.171-.078.258l-13.63 47.812-14.129-47.89c-.026-.089-.054-.176-.083-.264-1.311-3.906-5.094-6.445-9.209-6.167-4.111.275-7.526 3.294-8.32 7.425l-12.25 67.869c-.735 4.076 1.973 7.977 6.049 8.713 4.072.733 7.978-1.972 8.713-6.049l7.806-43.246 12.836 43.507c.026.09.055.179.084.267 1.245 3.704 4.697 6.185 8.602 6.185h.047c3.923-.02 7.373-2.54 8.584-6.271.028-.086.055-.173.08-.261l12.394-43.476 8.289 43.372c.777 4.069 4.714 6.741 8.774 5.958 1.443-.276 2.704-.953 3.703-1.887l14.265 40.599h-265.855c-4.143 0-7.5 3.357-7.5 7.5s3.357 7.5 7.5 7.5h271.124l23.638 67.276c.969 2.758 3.451 4.701 6.361 4.979.239.023.479.034.717.034 2.646 0 5.12-1.4 6.474-3.716l33.15-56.73 20.268-11.844h12.478c15.151 0 27.492-12.227 27.691-27.41 0-.003 0-.006 0-.009.001-.121.009-.24.009-.361zm-69.713 162.946c-1.113.651-2.04 1.578-2.691 2.691l-25.965 44.434-39.591-112.681 112.681 39.591z"/><path d="m75.081 424.71h-47.381c-7.003 0-12.7-5.697-12.7-12.7v-135.36c0-7.009 5.697-12.71 12.7-12.71h344.585c4.143 0 7.5-3.357 7.5-7.5s-3.357-7.5-7.5-7.5h-276.472v-133.008c0-4.143-3.357-7.5-7.5-7.5s-7.5 3.357-7.5 7.5v133.008h-53.113c-15.274 0-27.7 12.431-27.7 27.71v135.36c0 15.274 12.426 27.7 27.7 27.7h47.381c4.143 0 7.5-3.357 7.5-7.5s-3.357-7.5-7.5-7.5z"/></g></g></svg>