<svg id="Layer_1" enable-background="new 0 0 512.002 512.002" height="512" viewBox="0 0 512.002 512.002" width="512" xmlns="http://www.w3.org/2000/svg" xmlns:xlink="http://www.w3.org/1999/xlink"><linearGradient id="SVGID_1_" gradientUnits="userSpaceOnUse" x1=".005" x2="511.997" y1="256.001" y2="256.001"><stop offset="0" stop-color="#87f1fc"/><stop offset=".2557" stop-color="#7fd4fb"/><stop offset=".5295" stop-color="#78bcfb"/><stop offset=".7844" stop-color="#74aefa"/><stop offset="1" stop-color="#73a9fa"/></linearGradient><path d="m499.084 12.918c-11.756-11.761-28.885-15.88-44.702-10.747l-423.936 137.593c-16.624 5.396-28.176 19.539-30.148 36.911-1.972 17.375 6.118 33.751 21.114 42.736 1.104.662 2.27 1.215 3.479 1.653l126.942 45.9.124 136.891c.017 17.973 10.866 33.756 27.642 40.207 16.517 6.406 35.364 2.103 47.461-11.321.026-.029.054-.06.08-.089l43.912-49.137 73.719 107.632c8.99 14.669 25.516 22.525 42.333 20.555 17.372-1.957 31.521-13.504 36.928-30.134.236-.728.431-1.468.582-2.217l13.459-66.511c2.19-10.826-4.81-21.379-15.636-23.569-10.826-2.193-21.379 4.81-23.569 15.636l-13.146 64.96c-.603 1.222-1.642 1.923-3.097 2.087-1.691.186-3.007-.458-3.886-1.93-.211-.354-.434-.701-.666-1.041l-81.67-119.238 117.211-217.265c4.249-7.876 2.749-17.616-3.673-23.849-6.425-6.232-16.206-7.441-23.948-2.956l-216.301 125.212-128.663-46.522c-.802-.824-1.133-1.889-.986-3.179.194-1.71 1.12-2.846 2.751-3.375l423.936-137.593c1.549-.5 2.914-.172 4.063.979 1.16 1.16 1.49 2.541.982 4.104-.236.728-.431 1.467-.582 2.216l-52.641 260.125c-2.191 10.826 4.81 21.379 15.636 23.569 10.82 2.196 21.378-4.809 23.569-15.636l52.447-259.165c4.535-15.476.335-32.031-11.12-43.492zm-154.243 162.798-88.752 164.516-58.726 65.713c-.447.493-1.453 1.535-3.403.784-1.999-.77-2-2.271-2.001-2.911l-.126-139.529z" fill="url(#SVGID_1_)"/></svg>